{
  "accessors": [
    {
      "bufferView": 2,
      "componentType": 5126,
      "count": 65534,
      "max": [
        12.5,
        12.5,
        9.425000190734863
      ],
      "min": [
        -12.5,
        -12.5,
        -0.6000000238418579
      ],
      "type": "VEC3"
    },
    {
      "bufferView": 2,
      "byteOffset": 786408,
      "componentType": 5126,
      "count": 65534,
      "max": [
        1.0,
        1.0,
        1.0
      ],
      "min": [
        -1.0,
        -1.0,
        -1.0
      ],
      "type": "VEC3"
    },
    {
      "bufferView": 3,
      "componentType": 5126,
      "count": 65534,
      "max": [
        1.0,
        1.0,
        1.0,
        1.0
      ],
      "min": [
        -1.0,
        -1.0,
        -1.0,
        -1.0
      ],
      "type": "VEC4"
    },
    {
      "bufferView": 1,
      "componentType": 5126,
      "count": 65534,
      "max": [
        1.0,
        1.0
      ],
      "min": [
        0.0,
        0.0
      ],
      "type": "VEC2"
    },
    {
      "bufferView": 0,
      "componentType": 5125,
      "count": 104850,
      "type": "SCALAR"
    },
    {
      "bufferView": 2,
      "byteOffset": 1572816,
      "componentType": 5126,
      "count": 65533,
      "max": [
        12.600000381469727,
        0.6000000238418579,
        11.0
      ],
      "min": [
        -12.600000381469727,
        -17.100000381469727,
        -1.600000023841858
      ],
      "type": "VEC3"
    },
    {
      "bufferView": 2,
      "byteOffset": 2359212,
      "componentType": 5126,
      "count": 65533,
      "max": [
        1.0,
        1.0,
        1.0
      ],
      "min": [
        -1.0,
        -1.0,
        -1.0
      ],
      "type": "VEC3"
    },
    {
      "bufferView": 3,
      "byteOffset": 1048544,
      "componentType": 5126,
      "count": 65533,
      "max": [
        1.0,
        1.0,
        1.0,
        1.0
      ],
      "min": [
        -1.0,
        -1.0,
        -1.0,
        -1.0
      ],
      "type": "VEC4"
    },
    {
      "bufferView": 1,
      "byteOffset": 524272,
      "componentType": 5126,
      "count": 65533,
      "max": [
        1.0,
        1.0
      ],
      "min": [
        0.0,
        0.0
      ],
      "type": "VEC2"
    },
    {
      "bufferView": 0,
      "byteOffset": 419400,
      "componentType": 5125,
      "count": 105222,
      "type": "SCALAR"
    },
    {
      "bufferView": 2,
      "byteOffset": 3145608,
      "componentType": 5126,
      "count": 65532,
      "max": [
        16.55000114440918,
        8.5,
        15.0
      ],
      "min": [
        -8.5,
        -17.100000381469727,
        0.699999988079071
      ],
      "type": "VEC3"
    },
    {
      "bufferView": 2,
      "byteOffset": 3931992,
      "componentType": 5126,
      "count": 65532,
      "max": [
        1.0,
        1.0,
        1.0
      ],
      "min": [
        -1.0,
        -1.0,
        -1.0
      ],
      "type": "VEC3"
    },
    {
      "bufferView": 3,
      "byteOffset": 2097072,
      "componentType": 5126,
      "count": 65532,
      "max": [
        1.0,
        1.0,
        1.0,
        1.0
      ],
      "min": [
        -1.0,
        -1.0,
        -1.0,
        -1.0
      ],
      "type": "VEC4"
    },
    {
      "bufferView": 1,
      "byteOffset": 1048536,
      "componentType": 5126,
      "count": 65532,
      "max": [
        1.0,
        1.0
      ],
      "min": [
        0.0,
        0.0
      ],
      "type": "VEC2"
    },
    {
      "bufferView": 0,
      "byteOffset": 840288,
      "componentType": 5125,
      "count": 106887,
      "type": "SCALAR"
    },
    {
      "bufferView": 2,
      "byteOffset": 4718376,
      "componentType": 5126,
      "count": 61154,
      "max": [
        9.5,
        12.600000381469727,
        12.600000381469727
      ],
      "min": [
        -6.5,
        -17.5,
        -4.599999904632568
      ],
      "type": "VEC3"
    },
    {
      "bufferView": 2,
      "byteOffset": 5452224,
      "componentType": 5126,
      "count": 61154,
      "max": [
        1.0,
        1.0,
        1.0
      ],
      "min": [
        -1.0,
        -1.0,
        -1.0
      ],
      "type": "VEC3"
    },
    {
      "bufferView": 3,
      "byteOffset": 3145584,
      "componentType": 5126,
      "count": 61154,
      "max": [
        1.0,
        1.0,
        1.0,
        1.0
      ],
      "min": [
        -1.0,
        -1.0,
        -1.0,
        -1.0
      ],
      "type": "VEC4"
    },
    {
      "bufferView": 1,
      "byteOffset": 1572792,
      "componentType": 5126,
      "count": 61154,
      "max": [
        1.0,
        1.0
      ],
      "min": [
        0.0,
        0.0
      ],
      "type": "VEC2"
    },
    {
      "bufferView": 0,
      "byteOffset": 1267836,
      "componentType": 5125,
      "count": 99492,
      "type": "SCALAR"
    },
    {
      "bufferView": 2,
      "byteOffset": 6186072,
      "componentType": 5126,
      "count": 2043,
      "max": [
        11.375,
        9.375,
        10.375
      ],
      "min": [
        -11.375,
        -16.375,
        -1.875
      ],
      "type": "VEC3"
    },
    {
      "bufferView": 2,
      "byteOffset": 6210588,
      "componentType": 5126,
      "count": 2043,
      "max": [
        0.5773503184318542,
        0.7071068286895752,
        0.8164969086647034
      ],
      "min": [
        -0.6666668057441711,
        -0.8320503234863281,
        -0.8320503234863281
      ],
      "type": "VEC3"
    },
    {
      "bufferView": 1,
      "byteOffset": 2062024,
      "componentType": 5126,
      "count": 2043,
      "max": [
        1.0,
        1.0
      ],
      "min": [
        0.0,
        0.0
      ],
      "type": "VEC2"
    },
    {
      "bufferView": 0,
      "byteOffset": 1665804,
      "componentType": 5125,
      "count": 3639,
      "type": "SCALAR"
    },
    {
      "bufferView": 2,
      "byteOffset": 6235104,
      "componentType": 5126,
      "count": 4743,
      "max": [
        12.475000381469727,
        10.375,
        10.475000381469727
      ],
      "min": [
        -12.475000381469727,
        -16.475000381469727,
        -1.9249999523162842
      ],
      "type": "VEC3"
    },
    {
      "bufferView": 2,
      "byteOffset": 6292020,
      "componentType": 5126,
      "count": 4743,
      "max": [
        1.0,
        1.0,
        0.9701424241065979
      ],
      "min": [
        -1.0,
        -1.0,
        -0.9597283601760864
      ],
      "type": "VEC3"
    },
    {
      "bufferView": 1,
      "byteOffset": 2078368,
      "componentType": 5126,
      "count": 4743,
      "max": [
        1.0,
        1.0
      ],
      "min": [
        0.0,
        0.0
      ],
      "type": "VEC2"
    },
    {
      "bufferView": 0,
      "byteOffset": 1680360,
      "componentType": 5125,
      "count": 8133,
      "type": "SCALAR"
    },
    {
      "bufferView": 2,
      "byteOffset": 6348936,
      "componentType": 5126,
      "count": 2023,
      "max": [
        12.375,
        10.375,
        10.375
      ],
      "min": [
        -12.375,
        -17.375,
        -1.875
      ],
      "type": "VEC3"
    },
    {
      "bufferView": 2,
      "byteOffset": 6373212,
      "componentType": 5126,
      "count": 2023,
      "max": [
        0.8164969086647034,
        1.0,
        0.5773503184318542
      ],
      "min": [
        -0.7071068286895752,
        -1.0,
        -0.6666668057441711
      ],
      "type": "VEC3"
    },
    {
      "bufferView": 1,
      "byteOffset": 2116312,
      "componentType": 5126,
      "count": 2023,
      "max": [
        1.0,
        1.0
      ],
      "min": [
        0.0,
        0.0
      ],
      "type": "VEC2"
    },
    {
      "bufferView": 0,
      "byteOffset": 1712892,
      "componentType": 5125,
      "count": 3558,
      "type": "SCALAR"
    },
    {
      "bufferView": 2,
      "byteOffset": 6397488,
      "componentType": 5126,
      "count": 4602,
      "max": [
        15.5,
        11.200000762939453,
        11.5
      ],
      "min": [
        -11.200000762939453,
        -15.5,
        -2.3399999141693115
      ],
      "type": "VEC3"
    },
    {
      "bufferView": 2,
      "byteOffset": 6452712,
      "componentType": 5126,
      "count": 4602,
      "max": [
        0.9994636178016663,
        1.0,
        1.0
      ],
      "min": [
        -0.973475456237793,
        -0.9994636178016663,
        -0.99949711561203
      ],
      "type": "VEC3"
    },
    {
      "bufferView": 1,
      "byteOffset": 2132496,
      "componentType": 5126,
      "count": 4602,
      "max": [
        1.0,
        1.0
      ],
      "min": [
        0.0,
        0.0
      ],
      "type": "VEC2"
    },
    {
      "bufferView": 0,
      "byteOffset": 1727124,
      "componentType": 5125,
      "count": 7719,
      "type": "SCALAR"
    },
    {
      "bufferView": 2,
      "byteOffset": 6507936,
      "componentType": 5126,
      "count": 4477,
      "max": [
        16.5,
        12.5,
        12.200000762939453
      ],
      "min": [
        -12.5,
        -16.5,
        -3.0999999046325684
      ],
      "type": "VEC3"
    },
    {
      "bufferView": 2,
      "byteOffset": 6561660,
      "componentType": 5126,
      "count": 4477,
      "max": [
        0.9826033711433411,
        0.9858121275901794,
        0.9902243614196777
      ],
      "min": [
        -1.0,
        -0.9897852540016174,
        -0.9997666478157043
      ],
      "type": "VEC3"
    },
    {
      "bufferView": 1,
      "byteOffset": 2169312,
      "componentType": 5126,
      "count": 4477,
      "max": [
        1.0,
        1.0
      ],
      "min": [
        0.0,
        0.0
      ],
      "type": "VEC2"
    },
    {
      "bufferView": 0,
      "byteOffset": 1758000,
      "componentType": 5125,
      "count": 7365,
      "type": "SCALAR"
    },
    {
      "bufferView": 2,
      "byteOffset": 6615384,
      "componentType": 5126,
      "count": 551,
      "max": [
        9.5,
        2.5,
        11.5
      ],
      "min": [
        -2.5,
        -6.75,
        4.5
      ],
      "type": "VEC3"
    },
    {
      "bufferView": 2,
      "byteOffset": 6621996,
      "componentType": 5126,
      "count": 551,
      "max": [
        0.8017836809158325,
        0.6666668057441711,
        0.7071068286895752
      ],
      "min": [
        -0.7071068286895752,
        -0.6666668057441711,
        -0.6666668057441711
      ],
      "type": "VEC3"
    },
    {
      "bufferView": 1,
      "byteOffset": 2205128,
      "componentType": 5126,
      "count": 551,
      "max": [
        1.0,
        1.0
      ],
      "min": [
        0.0,
        0.0
      ],
      "type": "VEC2"
    },
    {
      "bufferView": 0,
      "byteOffset": 1787460,
      "componentType": 5125,
      "count": 981,
      "type": "SCALAR"
    }
  ],
  "asset": {
    "extras": {
      "author": "kronpano (https://sketchfab.com/kronpano)",
      "license": "CC-BY-4.0 (http://creativecommons.org/licenses/by/4.0/)",
      "source": "https://sketchfab.com/3d-models/space-station-x-326e55c4cb40425593114993db5e6ac4",
      "title": "Space station X"
    },
    "generator": "Sketchfab-14.97.0",
    "version": "2.0"
  },
  "bufferViews": [
    {
      "buffer": 0,
      "byteLength": 1791384,
      "name": "floatBufferViews",
      "target": 34963
    },
    {
      "buffer": 0,
      "byteLength": 2209536,
      "byteOffset": 1791384,
      "byteStride": 8,
      "name": "floatBufferViews",
      "target": 34962
    },
    {
      "buffer": 0,
      "byteLength": 6628608,
      "byteOffset": 4000920,
      "byteStride": 12,
      "name": "floatBufferViews",
      "target": 34962
    },
    {
      "buffer": 0,
      "byteLength": 4124048,
      "byteOffset": 10629528,
      "byteStride": 16,
      "name": "floatBufferViews",
      "target": 34962
    }
  ],
  "buffers": [
    {
      "byteLength": 14753576,
      "uri": "scene.bin"
    }
  ],
  "extensionsUsed": [
    "KHR_texture_transform",
    "KHR_materials_clearcoat",
    "KHR_materials_specular",
    "KHR_materials_emissive_strength"
  ],
  "images": [
    {
      "uri": "textures/material_0_baseColor.png"
    },
    {
      "uri": "textures/material_0_normal.png"
    }
  ],
  "materials": [
    {
      "doubleSided": true,
      "extensions": {
        "KHR_materials_clearcoat": {
          "clearcoatFactor": 1.0,
          "clearcoatRoughnessFactor": 0.04
        },
        "KHR_materials_specular": {
          "specularColorFactor": [
            1.0,
            1.0,
            1.0
          ],
          "specularFactor": 0.0
        }
      },
      "name": "material_0",
      "normalTexture": {
        "extensions": {
          "KHR_texture_transform": {
            "scale": [
              0.3000000000000004,
              0.3000000000000004
            ]
          }
        },
        "index": 1,
        "scale": 0.24228645268252244
      },
      "pbrMetallicRoughness": {
        "baseColorTexture": {
          "extensions": {
            "KHR_texture_transform": {
              "scale": [
                0.3000000000000004,
                0.3000000000000004
              ]
            }
          },
          "index": 0
        },
        "metallicFactor": 0.43123940949153367,
        "roughnessFactor": 0.6
      }
    },
    {
      "doubleSided": true,
      "extensions": {
        "KHR_materials_specular": {
          "specularColorFactor": [
            1.0,
            1.0,
            1.0
          ],
          "specularFactor": 0.0
        }
      },
      "name": "material_1",
      "pbrMetallicRoughness": {
        "baseColorFactor": [
          0.0,
          0.0,
          0.0,
          1.0
        ],
        "metallicFactor": 0.0,
        "roughnessFactor": 0.6
      }
    },
    {
      "doubleSided": true,
      "emissiveFactor": [
        0.7161926588728651,
        0.7161926588728651,
        0.7161926588728651
      ],
      "extensions": {
        "KHR_materials_specular": {
          "specularColorFactor": [
            1.0,
            1.0,
            1.0
          ],
          "specularFactor": 0.0
        }
      },
      "name": "material_2",
      "pbrMetallicRoughness": {
        "baseColorFactor": [
          0.08044651363453362,
          0.08044651363453362,
          0.08044651363453362,
          1.0
        ],
        "metallicFactor": 0.0,
        "roughnessFactor": 0.6
      }
    },
    {
      "doubleSided": true,
      "emissiveFactor": [
        0.06374193901130153,
        0.16111610572391852,
        0.05011910805883409
      ],
      "extensions": {
        "KHR_materials_emissive_strength": {
          "emissiveStrength": 1.0819080591483707
        }
      },
      "name": "material_3",
      "pbrMetallicRoughness": {
        "baseColorFactor": [
          0.06699081831355311,
          0.05652799577969006,
          0.1347365746164536,
          1.0
        ],
        "metallicFactor": 0.0,
        "roughnessFactor": 0.6
      }
    },
    {
      "doubleSided": true,
      "emissiveFactor": [
        0.007637641778362678,
        0.025375158675447103,
        0.08044651363453362
      ],
      "extensions": {
        "KHR_materials_emissive_strength": {
          "emissiveStrength": 6.689544196706123
        },
        "KHR_materials_specular": {
          "specularColorFactor": [
            1.0,
            1.0,
            1.0
          ],
          "specularFactor": 0.0
        }
      },
      "name": "material_4",
      "pbrMetallicRoughness": {
        "baseColorFactor": [
          0.0,
          0.0,
          0.0,
          1.0
        ],
        "metallicFactor": 0.0,
        "roughnessFactor": 0.6
      }
    },
    {
      "doubleSided": true,
      "emissiveFactor": [
        0.16065585059625326,
        0.1818310641838968,
        0.21815952230455524
      ],
      "extensions": {
        "KHR_materials_emissive_strength": {
          "emissiveStrength": 3.276200460801404
        }
      },
      "name": "material_5",
      "pbrMetallicRoughness": {
        "metallicFactor": 0.0,
        "roughnessFactor": 0.6
      }
    },
    {
      "doubleSided": true,
      "extensions": {
        "KHR_materials_specular": {
          "specularColorFactor": [
            1.0,
            1.0,
            1.0
          ],
          "specularFactor": 0.0
        }
      },
      "name": "material_6",
      "pbrMetallicRoughness": {
        "baseColorFactor": [
          0.03564081245896186,
          0.03564081245896186,
          0.03564081245896186,
          1.0
        ],
        "metallicFactor": 0.0,
        "roughnessFactor": 0.6
      }
    }
  ],
  "meshes": [
    {
      "name": "Object_0",
      "primitives": [
        {
          "attributes": {
            "NORMAL": 1,
            "POSITION": 0,
            "TANGENT": 2,
            "TEXCOORD_0": 3
          },
          "indices": 4,
          "material": 0,
          "mode": 4
        }
      ]
    },
    {
      "name": "Object_1",
      "primitives": [
        {
          "attributes": {
            "NORMAL": 6,
            "POSITION": 5,
            "TANGENT": 7,
            "TEXCOORD_0": 8
          },
          "indices": 9,
          "material": 0,
          "mode": 4
        }
      ]
    },
    {
      "name": "Object_2",
      "primitives": [
        {
          "attributes": {
            "NORMAL": 11,
            "POSITION": 10,
            "TANGENT": 12,
            "TEXCOORD_0": 13
          },
          "indices": 14,
          "material": 0,
          "mode": 4
        }
      ]
    },
    {
      "name": "Object_3",
      "primitives": [
        {
          "attributes": {
            "NORMAL": 16,
            "POSITION": 15,
            "TANGENT": 17,
            "TEXCOORD_0": 18
          },
          "indices": 19,
          "material": 0,
          "mode": 4
        }
      ]
    },
    {
      "name": "Object_4",
      "primitives": [
        {
          "attributes": {
            "NORMAL": 21,
            "POSITION": 20,
            "TEXCOORD_0": 22
          },
          "indices": 23,
          "material": 1,
          "mode": 4
        }
      ]
    },
    {
      "name": "Object_5",
      "primitives": [
        {
          "attributes": {
            "NORMAL": 25,
            "POSITION": 24,
            "TEXCOORD_0": 26
          },
          "indices": 27,
          "material": 2,
          "mode": 4
        }
      ]
    },
    {
      "name": "Object_6",
      "primitives": [
        {
          "attributes": {
            "NORMAL": 29,
            "POSITION": 28,
            "TEXCOORD_0": 30
          },
          "indices": 31,
          "material": 3,
          "mode": 4
        }
      ]
    },
    {
      "name": "Object_7",
      "primitives": [
        {
          "attributes": {
            "NORMAL": 33,
            "POSITION": 32,
            "TEXCOORD_0": 34
          },
          "indices": 35,
          "material": 4,
          "mode": 4
        }
      ]
    },
    {
      "name": "Object_8",
      "primitives": [
        {
          "attributes": {
            "NORMAL": 37,
            "POSITION": 36,
            "TEXCOORD_0": 38
          },
          "indices": 39,
          "material": 5,
          "mode": 4
        }
      ]
    },
    {
      "name": "Object_9",
      "primitives": [
        {
          "attributes": {
            "NORMAL": 41,
            "POSITION": 40,
            "TEXCOORD_0": 42
          },
          "indices": 43,
          "material": 6,
          "mode": 4
        }
      ]
    }
  ],
  "nodes": [
    {
      "children": [
        1
      ],
      "matrix": [
        1.0,
        0.0,
        0.0,
        0.0,
        0.0,
        2.220446049250313e-16,
        -1.0,
        0.0,
        0.0,
        1.0,
        2.220446049250313e-16,
        0.0,
        0.0,
        0.0,
        0.0,
        1.0
      ],
      "name": "Sketchfab_model"
    },
    {
      "children": [
        2,
        3,
        4,
        5,
        6,
        7,
        8,
        9,
        10,
        11
      ],
      "name": "model_2023-2-14-21-27-21_2.obj.cleaner.materialmerger.gles"
    },
    {
      "mesh": 0,
      "name": "Object_2"
    },
    {
      "mesh": 1,
      "name": "Object_3"
    },
    {
      "mesh": 2,
      "name": "Object_4"
    },
    {
      "mesh": 3,
      "name": "Object_5"
    },
    {
      "mesh": 4,
      "name": "Object_6"
    },
    {
      "mesh": 5,
      "name": "Object_7"
    },
    {
      "mesh": 6,
      "name": "Object_8"
    },
    {
      "mesh": 7,
      "name": "Object_9"
    },
    {
      "mesh": 8,
      "name": "Object_10"
    },
    {
      "mesh": 9,
      "name": "Object_11"
    }
  ],
  "samplers": [
    {
      "magFilter": 9729,
      "minFilter": 9987,
      "wrapS": 10497,
      "wrapT": 10497
    }
  ],
  "scene": 0,
  "scenes": [
    {
      "name": "Sketchfab_Scene",
      "nodes": [
        0
      ]
    }
  ],
  "textures": [
    {
      "sampler": 0,
      "source": 0
    },
    {
      "sampler": 0,
      "source": 1
    }
  ]
}
