{
  "accessors": [
    {
      "bufferView": 2,
      "componentType": 5126,
      "count": 3625,
      "max": [
        21.964902877807617,
        21.964975357055664,
        44.325584411621094
      ],
      "min": [
        -21.964902877807617,
        -21.964975357055664,
        0.395782470703125
      ],
      "type": "VEC3"
    },
    {
      "bufferView": 2,
      "byteOffset": 43500,
      "componentType": 5126,
      "count": 3625,
      "max": [
        0.999997079372406,
        1.0,
        0.9999970197677612
      ],
      "min": [
        -0.9999970197677612,
        -1.0,
        -0.999997079372406
      ],
      "type": "VEC3"
    },
    {
      "bufferView": 3,
      "componentType": 5126,
      "count": 3625,
      "max": [
        0.8177406787872314,
        0.7944484353065491,
        0.8164956569671631,
        1.0
      ],
      "min": [
        -0.81539386510849,
        -0.817530632019043,
        -0.801520049571991,
        1.0
      ],
      "type": "VEC4"
    },
    {
      "bufferView": 1,
      "componentType": 5126,
      "count": 3625,
      "max": [
        0.9979999661445618,
        0.9778267741203308
      ],
      "min": [
        0.0020000000949949026,
        0.0020000000949949026
      ],
      "type": "VEC2"
    },
    {
      "bufferView": 0,
      "componentType": 5125,
      "count": 20736,
      "type": "SCALAR"
    }
  ],
  "asset": {
    "extras": {
      "author": "ARCTIC  WOLVES™ (https://sketchfab.com/arctic.wolves)",
      "license": "CC-BY-4.0 (http://creativecommons.org/licenses/by/4.0/)",
      "source": "https://sketchfab.com/3d-models/planet-of-phoenix-bbe2737a863445f7bb2a6901d10b090a",
      "title": "Planet Of Phoenix"
    },
    "generator": "Sketchfab-15.25.0",
    "version": "2.0"
  },
  "bufferViews": [
    {
      "buffer": 0,
      "byteLength": 82944,
      "name": "floatBufferViews",
      "target": 34963
    },
    {
      "buffer": 0,
      "byteLength": 29000,
      "byteOffset": 82944,
      "byteStride": 8,
      "name": "floatBufferViews",
      "target": 34962
    },
    {
      "buffer": 0,
      "byteLength": 87000,
      "byteOffset": 111944,
      "byteStride": 12,
      "name": "floatBufferViews",
      "target": 34962
    },
    {
      "buffer": 0,
      "byteLength": 58000,
      "byteOffset": 198944,
      "byteStride": 16,
      "name": "floatBufferViews",
      "target": 34962
    }
  ],
  "buffers": [
    {
      "byteLength": 256944,
      "uri": "scene.bin"
    }
  ],
  "extensionsUsed": [
    "KHR_materials_specular"
  ],
  "images": [
    {
      "uri": "textures/Scene_-_Root_baseColor.png"
    },
    {
      "uri": "textures/Scene_-_Root_metallicRoughness.png"
    },
    {
      "uri": "textures/Scene_-_Root_normal.png"
    },
    {
      "uri": "textures/Scene_-_Root_specularf0.png"
    }
  ],
  "materials": [
    {
      "doubleSided": true,
      "extensions": {
        "KHR_materials_specular": {
          "specularColorFactor": [
            1.0,
            1.0,
            1.0
          ],
          "specularFactor": 1.0,
          "specularTexture": {
            "index": 3
          }
        }
      },
      "name": "Scene_-_Root",
      "normalTexture": {
        "index": 2
      },
      "occlusionTexture": {
        "index": 1
      },
      "pbrMetallicRoughness": {
        "baseColorTexture": {
          "index": 0
        },
        "metallicRoughnessTexture": {
          "index": 1
        },
        "roughnessFactor": 0.858177353251715
      }
    }
  ],
  "meshes": [
    {
      "name": "Phoenix_LOD0__0",
      "primitives": [
        {
          "attributes": {
            "NORMAL": 1,
            "POSITION": 0,
            "TANGENT": 2,
            "TEXCOORD_0": 3
          },
          "indices": 4,
          "material": 0,
          "mode": 4
        }
      ]
    }
  ],
  "nodes": [
    {
      "children": [
        1
      ],
      "matrix": [
        0.07761383056640625,
        0.0,
        0.0,
        0.0,
        0.0,
        1.7233732344835995e-17,
        -0.07761383056640625,
        0.0,
        0.0,
        0.07761383056640625,
        1.7233732344835995e-17,
        0.0,
        0.0,
        0.0,
        0.0,
        1.0
      ],
      "name": "Sketchfab_model"
    },
    {
      "children": [
        2
      ],
      "matrix": [
        0.0010000000474974513,
        0.0,
        0.0,
        0.0,
        0.0,
        -0.0010000000474974513,
        0.0,
        0.0,
        0.0,
        0.0,
        -0.0010000000474974513,
        0.0,
        0.0,
        0.0,
        0.0,
        1.0
      ],
      "name": "2d94b2faa8364f3987e0e654dad2ddb3.fbx"
    },
    {
      "children": [
        3
      ],
      "name": "RootNode"
    },
    {
      "children": [
        4
      ],
      "matrix": [
        1000.0,
        0.0,
        0.0,
        0.0,
        0.0,
        1000.0,
        0.0,
        0.0,
        0.0,
        0.0,
        1000.0,
        0.0,
        0.0,
        0.0,
        0.0,
        1.0
      ],
      "name": "Phoenix_LOD0"
    },
    {
      "children": [
        5
      ],
      "matrix": [
        1.0,
        0.0,
        -0.0,
        0.0,
        0.0,
        1.0,
        0.0,
        0.0,
        0.0,
        0.0,
        1.0,
        0.0,
        0.0,
        0.0,
        -22.360679626464844,
        1.0
      ],
      "name": "Object_4"
    },
    {
      "mesh": 0,
      "name": "Phoenix_LOD0__0"
    }
  ],
  "samplers": [
    {
      "magFilter": 9729,
      "minFilter": 9987,
      "wrapS": 10497,
      "wrapT": 10497
    }
  ],
  "scene": 0,
  "scenes": [
    {
      "name": "Sketchfab_Scene",
      "nodes": [
        0
      ]
    }
  ],
  "textures": [
    {
      "sampler": 0,
      "source": 0
    },
    {
      "sampler": 0,
      "source": 1
    },
    {
      "sampler": 0,
      "source": 2
    },
    {
      "sampler": 0,
      "source": 3
    }
  ]
}
